<?xml version="1.0" encoding="UTF-8"?>
<!DOCTYPE svg PUBLIC "-//W3C//DTD SVG 1.1//EN" "http://www.w3.org/Graphics/SVG/1.1/DTD/svg11.dtd">
<svg xmlns="http://www.w3.org/2000/svg" version="1.1" width="192px" height="192px" style="shape-rendering:geometricPrecision; text-rendering:geometricPrecision; image-rendering:optimizeQuality; fill-rule:evenodd; clip-rule:evenodd" xmlns:xlink="http://www.w3.org/1999/xlink">
<g><path style="opacity:0.901" fill="#d5d6b3" d="M 71.5,-0.5 C 91.1667,-0.5 110.833,-0.5 130.5,-0.5C 130.5,0.166667 130.833,0.5 131.5,0.5C 131.5,0.833333 131.5,1.16667 131.5,1.5C 129.694,4.74769 127.194,7.41436 124,9.5C 123.51,10.7932 123.343,12.1266 123.5,13.5C 120.765,16.5168 121.765,17.8501 126.5,17.5C 129.964,17.2359 133.297,16.7359 136.5,16C 135.856,18.74 134.689,21.24 133,23.5C 133.504,28.5243 133.338,33.5243 132.5,38.5C 135.166,38.067 137.832,37.567 140.5,37C 141.823,36.1841 142.489,35.0174 142.5,33.5C 143.404,32.791 143.737,31.791 143.5,30.5C 145.959,24.1597 147.125,17.4931 147,10.5C 147.346,13.5755 148.012,16.5755 149,19.5C 152.638,22.7269 156.138,26.0602 159.5,29.5C 160.25,26.3416 161.583,23.6749 163.5,21.5C 167.492,25.9315 171.658,30.2648 176,34.5C 177.094,36.0779 177.928,37.7446 178.5,39.5C 178.511,41.0174 179.177,42.1841 180.5,43C 179.167,44 179.167,45 180.5,46C 179.643,46.6891 178.977,47.5224 178.5,48.5C 178.846,49.6956 179.346,49.6956 180,48.5C 180.667,49.8333 181.333,51.1667 182,52.5C 182.605,50.5188 183.605,50.1854 185,51.5C 185.251,53.433 185.751,55.2663 186.5,57C 186.056,58.5333 185.723,60.0333 185.5,61.5C 186.391,62.5896 187.391,62.5896 188.5,61.5C 189.604,62.6313 189.271,63.4646 187.5,64C 188.745,64.7914 190.078,65.2914 191.5,65.5C 191.5,84.5 191.5,103.5 191.5,122.5C 183.195,123.55 174.861,124.55 166.5,125.5C 163.731,129.381 160.731,133.048 157.5,136.5C 151.917,142.293 145.917,147.627 139.5,152.5C 138.279,151.535 136.946,151.702 135.5,153C 129.578,157.261 123.412,161.094 117,164.5C 115.994,159.687 114.828,155.021 113.5,150.5C 139.732,145.695 156.399,130.361 163.5,104.5C 164.086,104.709 164.586,105.043 165,105.5C 164.845,102.16 164.345,98.8264 163.5,95.5C 163.587,90.4635 163.254,85.4635 162.5,80.5C 164.527,80.6621 166.527,80.4955 168.5,80C 177.83,74.0158 179.83,66.0158 174.5,56C 173.207,55.51 171.873,55.3433 170.5,55.5C 163.118,52.0777 156.451,53.0777 150.5,58.5C 137.543,46.3927 122.209,39.0593 104.5,36.5C 100.141,34.0466 95.4748,32.3799 90.5,31.5C 90.7678,29.901 90.4345,28.5676 89.5,27.5C 92.5585,21.3692 90.5585,18.5358 83.5,19C 82.6198,20.3561 82.2865,21.8561 82.5,23.5C 81.0222,23.238 79.6888,23.5713 78.5,24.5C 79.8545,26.5212 81.5212,28.1879 83.5,29.5C 82.9094,30.1515 82.2427,30.8182 81.5,31.5C 81.6236,32.1067 81.9569,32.44 82.5,32.5C 82.573,34.0269 81.9063,35.0269 80.5,35.5C 67.3003,36.6516 56.967,41.4849 49.5,50C 42.3269,56.8514 37.1602,65.0181 34,74.5C 32.4549,81.1593 30.6216,87.4927 28.5,93.5C 25.2074,87.2506 22.2074,80.9172 19.5,74.5C 24.118,73.9491 26.9513,75.9491 28,80.5C 27.8607,74.3728 24.6941,71.8728 18.5,73C 15.0393,75.9873 14.5393,79.4873 17,83.5C 20.6965,89.5597 23.8632,95.893 26.5,102.5C 25.8439,105.499 24.1773,106.166 21.5,104.5C 19.3291,102.16 17.6625,99.4937 16.5,96.5C 15.9626,100.76 17.6293,104.093 21.5,106.5C 21.6107,107.117 21.944,107.617 22.5,108C 25.146,108.497 27.8127,108.664 30.5,108.5C 30.5,109.5 30.5,110.5 30.5,111.5C 29.5326,112.806 28.1993,113.473 26.5,113.5C 23.8698,119.281 23.2032,125.281 24.5,131.5C 25.5,131.5 26.5,131.5 27.5,131.5C 27.281,132.675 27.6143,133.675 28.5,134.5C 33.2924,137.495 38.2924,137.995 43.5,136C 44.056,135.617 44.3893,135.117 44.5,134.5C 55.5498,142.52 67.8831,147.52 81.5,149.5C 78.5252,159.782 74.1919,169.449 68.5,178.5C 52.2397,164.181 33.2397,155.848 11.5,153.5C 9.5029,151.283 7.5029,148.95 5.5,146.5C 4.38203,141.916 2.38203,137.916 -0.5,134.5C -0.5,108.5 -0.5,82.5 -0.5,56.5C 0.166667,56.5 0.5,56.1667 0.5,55.5C 4.44594,55.6117 8.44594,55.6117 12.5,55.5C 13.6783,51.1203 15.0117,46.7869 16.5,42.5C 26.9922,41.8333 37.3255,41.1666 47.5,40.5C 48.1665,35.3187 48.8332,29.9853 49.5,24.5C 52.8456,25.5045 56.1789,26.5045 59.5,27.5C 60.5,27.5 61.5,27.5 62.5,27.5C 65.4787,18.2283 68.4787,8.89493 71.5,-0.5 Z"/></g>
<g><path style="opacity:0.005" fill="#0e0e0e" d="M 131.5,0.5 C 133.434,1.11028 135.101,2.11028 136.5,3.5C 134.447,3.59794 132.78,2.93127 131.5,1.5C 131.5,1.16667 131.5,0.833333 131.5,0.5 Z"/></g>
<g><path style="opacity:0.007" fill="#050505" d="M 137.5,3.5 C 140.292,3.62248 142.292,4.95581 143.5,7.5C 142.833,7.5 142.167,7.5 141.5,7.5C 139.515,7.14138 138.849,6.30804 139.5,5C 138.584,4.72158 137.918,4.22158 137.5,3.5 Z"/></g>
<g><path style="opacity:0.124" fill="#9d9d86" d="M 55.5,1.5 C 56.7409,3.93121 57.9076,3.93121 59,1.5C 60.6334,4.14009 60.4667,6.80675 58.5,9.5C 54.8068,10.056 51.3068,11.056 48,12.5C 46.073,11.139 43.9063,10.3057 41.5,10C 42.3805,9.2917 43.0472,8.45837 43.5,7.5C 46.9913,4.55383 50.9913,2.55383 55.5,1.5 Z"/></g>
<g><path style="opacity:0.773" fill="#799161" d="M 131.5,1.5 C 132.78,2.93127 134.447,3.59794 136.5,3.5C 136.833,3.5 137.167,3.5 137.5,3.5C 137.918,4.22158 138.584,4.72158 139.5,5C 138.849,6.30804 139.515,7.14138 141.5,7.5C 141.607,9.90315 140.607,11.7365 138.5,13C 135.419,13.5267 132.419,14.36 129.5,15.5C 127.214,14.2448 125.381,14.5781 124,16.5C 123.517,15.552 123.351,14.552 123.5,13.5C 123.343,12.1266 123.51,10.7932 124,9.5C 127.194,7.41436 129.694,4.74769 131.5,1.5 Z"/></g>
<g><path style="opacity:0.878" fill="#4e6e3b" d="M 141.5,7.5 C 142.167,7.5 142.833,7.5 143.5,7.5C 147.494,8.65554 151.16,10.4889 154.5,13C 157.396,16.0657 160.396,18.8991 163.5,21.5C 161.583,23.6749 160.25,26.3416 159.5,29.5C 156.138,26.0602 152.638,22.7269 149,19.5C 148.012,16.5755 147.346,13.5755 147,10.5C 147.125,17.4931 145.959,24.1597 143.5,30.5C 142.25,30.5774 141.417,31.244 141,32.5C 139.795,31.9288 138.628,31.2621 137.5,30.5C 139.027,28.8067 140.36,26.9734 141.5,25C 141.167,24.6667 140.833,24.3333 140.5,24C 143.545,21.5523 144.045,18.719 142,15.5C 139.175,16.5842 139.008,17.7508 141.5,19C 140.167,19.6667 138.833,20.3333 137.5,21C 136.167,21.6667 136.167,22.3333 137.5,23C 136.5,24 135.5,25 134.5,26C 137.493,26.4273 137.993,27.5939 136,29.5C 135.237,26.9365 134.737,26.9365 134.5,29.5C 135.054,31.6096 135.888,33.6096 137,35.5C 138.815,34.7556 140.648,34.0889 142.5,33.5C 142.489,35.0174 141.823,36.1841 140.5,37C 137.832,37.567 135.166,38.067 132.5,38.5C 133.338,33.5243 133.504,28.5243 133,23.5C 134.689,21.24 135.856,18.74 136.5,16C 133.297,16.7359 129.964,17.2359 126.5,17.5C 121.765,17.8501 120.765,16.5168 123.5,13.5C 123.351,14.552 123.517,15.552 124,16.5C 125.381,14.5781 127.214,14.2448 129.5,15.5C 132.419,14.36 135.419,13.5267 138.5,13C 140.607,11.7365 141.607,9.90315 141.5,7.5 Z"/></g>
<g><path style="opacity:0.6" fill="#535449" d="M 57.5,-0.5 C 60.5,-0.5 63.5,-0.5 66.5,-0.5C 63.7938,7.11879 60.7938,14.6188 57.5,22C 56.1667,22.6667 54.8333,22.6667 53.5,22C 46.4189,19.3646 39.4189,16.8646 32.5,14.5C 35.5843,11.4524 39.251,9.11905 43.5,7.5C 43.0472,8.45837 42.3805,9.2917 41.5,10C 43.9063,10.3057 46.073,11.139 48,12.5C 51.3068,11.056 54.8068,10.056 58.5,9.5C 60.4667,6.80675 60.6334,4.14009 59,1.5C 57.9076,3.93121 56.7409,3.93121 55.5,1.5C 56.1667,0.833333 56.8333,0.166667 57.5,-0.5 Z"/></g>
<g><path style="opacity:0.984" fill="#7f7e69" d="M 69.5,-0.5 C 70.1667,-0.5 70.8333,-0.5 71.5,-0.5C 68.4787,8.89493 65.4787,18.2283 62.5,27.5C 61.5,27.5 60.5,27.5 59.5,27.5C 62.2692,17.9624 65.6025,8.62905 69.5,-0.5 Z"/></g>
<g><path style="opacity:1" fill="#d0863d" d="M 89.5,27.5 C 86.9899,27.0535 84.9899,27.7202 83.5,29.5C 81.5212,28.1879 79.8545,26.5212 78.5,24.5C 79.6888,23.5713 81.0222,23.238 82.5,23.5C 82.2865,21.8561 82.6198,20.3561 83.5,19C 90.5585,18.5358 92.5585,21.3692 89.5,27.5 Z"/></g>
<g><path style="opacity:0.051" fill="#32312c" d="M 27.5,18.5 C 27.0481,21.203 26.3815,23.8697 25.5,26.5C 23.4684,25.181 21.4684,25.181 19.5,26.5C 21.8123,23.5211 24.4789,20.8544 27.5,18.5 Z"/></g>
<g><path style="opacity:0.993" fill="#b2af97" d="M 66.5,-0.5 C 67.5,-0.5 68.5,-0.5 69.5,-0.5C 65.6025,8.62905 62.2692,17.9624 59.5,27.5C 56.1789,26.5045 52.8456,25.5045 49.5,24.5C 48.8332,29.9853 48.1665,35.3187 47.5,40.5C 47.8293,34.4632 47.4959,28.4632 46.5,22.5C 45.5052,27.7921 45.1718,33.1254 45.5,38.5C 34.872,39.4296 24.2053,39.763 13.5,39.5C 12.1667,44.5 10.8333,49.5 9.5,54.5C 6.41245,54.8034 4.74578,53.4701 4.5,50.5C 5.82207,50.67 6.98873,50.3366 8,49.5C 7.93568,47.0444 8.10234,44.7111 8.5,42.5C 8.49136,40.6916 8.99136,39.0249 10,37.5C 12.0714,36.8971 13.2381,35.5638 13.5,33.5C 15.0481,33.8212 15.7148,34.8212 15.5,36.5C 24.5,36.5 33.5,36.5 42.5,36.5C 42.722,33.6097 42.0553,30.943 40.5,28.5C 40.8457,27.3044 41.3457,27.3044 42,28.5C 42.6667,25.8333 42.6667,23.1667 42,20.5C 40.9887,19.6634 39.8221,19.33 38.5,19.5C 38.5,21.1667 38.5,22.8333 38.5,24.5C 35.0086,24.4832 32.3419,25.9832 30.5,29C 27.1667,29.6667 23.8333,29.6667 20.5,29C 19.5842,28.7216 18.9175,28.2216 18.5,27.5C 18.5,26.8333 18.8333,26.5 19.5,26.5C 21.4684,25.181 23.4684,25.181 25.5,26.5C 26.3815,23.8697 27.0481,21.203 27.5,18.5C 29.3492,17.407 31.0158,16.0737 32.5,14.5C 39.4189,16.8646 46.4189,19.3646 53.5,22C 54.8333,22.6667 56.1667,22.6667 57.5,22C 60.7938,14.6188 63.7938,7.11879 66.5,-0.5 Z"/></g>
<g><path style="opacity:1" fill="#65360d" d="M 89.5,27.5 C 90.4345,28.5676 90.7678,29.901 90.5,31.5C 87.7628,31.4013 85.0961,31.7347 82.5,32.5C 81.9569,32.44 81.6236,32.1067 81.5,31.5C 82.2427,30.8182 82.9094,30.1515 83.5,29.5C 84.9899,27.7202 86.9899,27.0535 89.5,27.5 Z"/></g>
<g><path style="opacity:0.996" fill="#8da174" d="M 143.5,30.5 C 143.737,31.791 143.404,32.791 142.5,33.5C 140.648,34.0889 138.815,34.7556 137,35.5C 135.888,33.6096 135.054,31.6096 134.5,29.5C 134.737,26.9365 135.237,26.9365 136,29.5C 137.993,27.5939 137.493,26.4273 134.5,26C 135.5,25 136.5,24 137.5,23C 136.167,22.3333 136.167,21.6667 137.5,21C 138.833,20.3333 140.167,19.6667 141.5,19C 139.008,17.7508 139.175,16.5842 142,15.5C 144.045,18.719 143.545,21.5523 140.5,24C 140.833,24.3333 141.167,24.6667 141.5,25C 140.36,26.9734 139.027,28.8067 137.5,30.5C 138.628,31.2621 139.795,31.9288 141,32.5C 141.417,31.244 142.25,30.5774 143.5,30.5 Z"/></g>
<g><path style="opacity:1" fill="#d38338" d="M 90.5,31.5 C 95.4748,32.3799 100.141,34.0466 104.5,36.5C 119.197,53.6382 115.53,65.1382 93.5,71C 76.8373,72.6695 69.6706,65.1695 72,48.5C 74.2695,43.7436 77.1028,39.4102 80.5,35.5C 81.9063,35.0269 82.573,34.0269 82.5,32.5C 85.0961,31.7347 87.7628,31.4013 90.5,31.5 Z"/></g>
<g><path style="opacity:0.196" fill="#57574c" d="M 13.5,33.5 C 15.1436,31.5193 16.8103,29.5193 18.5,27.5C 18.9175,28.2216 19.5842,28.7216 20.5,29C 23.8333,29.6667 27.1667,29.6667 30.5,29C 32.3419,25.9832 35.0086,24.4832 38.5,24.5C 38.5,22.8333 38.5,21.1667 38.5,19.5C 39.8221,19.33 40.9887,19.6634 42,20.5C 42.6667,23.1667 42.6667,25.8333 42,28.5C 41.3457,27.3044 40.8457,27.3044 40.5,28.5C 42.0553,30.943 42.722,33.6097 42.5,36.5C 33.5,36.5 24.5,36.5 15.5,36.5C 15.7148,34.8212 15.0481,33.8212 13.5,33.5 Z"/></g>
<g><path style="opacity:0.542" fill="#7f7f6a" d="M 47.5,40.5 C 37.3255,41.1666 26.9922,41.8333 16.5,42.5C 15.0117,46.7869 13.6783,51.1203 12.5,55.5C 8.44594,55.6117 4.44594,55.6117 0.5,55.5C 2.62577,51.7288 4.4591,47.7288 6,43.5C 6.67076,42.7476 7.5041,42.4142 8.5,42.5C 8.10234,44.7111 7.93568,47.0444 8,49.5C 6.98873,50.3366 5.82207,50.67 4.5,50.5C 4.74578,53.4701 6.41245,54.8034 9.5,54.5C 10.8333,49.5 12.1667,44.5 13.5,39.5C 24.2053,39.763 34.872,39.4296 45.5,38.5C 45.1718,33.1254 45.5052,27.7921 46.5,22.5C 47.4959,28.4632 47.8293,34.4632 47.5,40.5 Z"/></g>
<g><path style="opacity:0.077" fill="#a4a38b" d="M 178.5,39.5 C 179.458,39.9528 180.292,40.6195 181,41.5C 184.81,48.4843 188.31,55.4843 191.5,62.5C 191.5,63.5 191.5,64.5 191.5,65.5C 190.078,65.2914 188.745,64.7914 187.5,64C 189.271,63.4646 189.604,62.6313 188.5,61.5C 187.391,62.5896 186.391,62.5896 185.5,61.5C 185.723,60.0333 186.056,58.5333 186.5,57C 185.751,55.2663 185.251,53.433 185,51.5C 183.605,50.1854 182.605,50.5188 182,52.5C 181.333,51.1667 180.667,49.8333 180,48.5C 179.346,49.6956 178.846,49.6956 178.5,48.5C 178.977,47.5224 179.643,46.6891 180.5,46C 179.167,45 179.167,44 180.5,43C 179.177,42.1841 178.511,41.0174 178.5,39.5 Z"/></g>
<g><path style="opacity:0.769" fill="#acaa81" d="M 170.5,55.5 C 171.873,55.3433 173.207,55.51 174.5,56C 179.83,66.0158 177.83,74.0158 168.5,80C 166.527,80.4955 164.527,80.6621 162.5,80.5C 163.254,85.4635 163.587,90.4635 163.5,95.5C 162.883,95.3893 162.383,95.056 162,94.5C 161.084,90.5807 159.917,86.7474 158.5,83C 159.056,81.9889 159.722,81.1556 160.5,80.5C 161.167,79.8333 161.833,79.1667 162.5,78.5C 166.971,79.485 170.471,77.8184 173,73.5C 176.456,68.2624 176.29,63.2624 172.5,58.5C 171.833,57.5 171.167,56.5 170.5,55.5 Z"/></g>
<g><path style="opacity:1" fill="#f6de89" d="M 155.5,57.5 C 155.791,58.6491 156.624,59.3158 158,59.5C 163.666,59.3202 168.333,61.3202 172,65.5C 172.483,64.552 172.649,63.552 172.5,62.5C 173.451,63.9187 173.784,65.5853 173.5,67.5C 171.863,68.2178 170.197,68.3845 168.5,68C 167.949,66.6015 167.616,65.2682 167.5,64C 166.551,63.3828 165.718,63.5494 165,64.5C 162.073,61.4944 159.073,61.1611 156,63.5C 154.989,62.6634 153.822,62.33 152.5,62.5C 151.916,59.715 152.916,58.0483 155.5,57.5 Z"/></g>
<g><path style="opacity:0.984" fill="#f3e2ac" d="M 172.5,61.5 C 172.5,61.8333 172.5,62.1667 172.5,62.5C 172.649,63.552 172.483,64.552 172,65.5C 168.333,61.3202 163.666,59.3202 158,59.5C 156.624,59.3158 155.791,58.6491 155.5,57.5C 160.732,53.3601 165.732,53.8601 170.5,59C 169.5,59.3333 168.5,59.6667 167.5,60C 169.025,61.0086 170.692,61.5086 172.5,61.5 Z"/></g>
<g><path style="opacity:1" fill="#e3ba45" d="M 170.5,55.5 C 171.167,56.5 171.833,57.5 172.5,58.5C 172.5,59.5 172.5,60.5 172.5,61.5C 170.692,61.5086 169.025,61.0086 167.5,60C 168.5,59.6667 169.5,59.3333 170.5,59C 165.732,53.8601 160.732,53.3601 155.5,57.5C 152.916,58.0483 151.916,59.715 152.5,62.5C 153.822,62.33 154.989,62.6634 156,63.5C 159.073,61.1611 162.073,61.4944 165,64.5C 165.718,63.5494 166.551,63.3828 167.5,64C 167.616,65.2682 167.949,66.6015 168.5,68C 170.197,68.3845 171.863,68.2178 173.5,67.5C 173.649,68.552 173.483,69.552 173,70.5C 171.333,71.5 170,72.8333 169,74.5C 167.246,72.75 165.079,72.0833 162.5,72.5C 161.167,72.1667 159.833,71.8333 158.5,71.5C 156.574,69.7073 154.241,68.7073 151.5,68.5C 151.167,65.8333 150.833,63.1667 150.5,60.5C 150.5,59.8333 150.5,59.1667 150.5,58.5C 156.451,53.0777 163.118,52.0777 170.5,55.5 Z"/></g>
<g><path style="opacity:1" fill="#c97e23" d="M 150.5,60.5 C 150.833,63.1667 151.167,65.8333 151.5,68.5C 154.241,68.7073 156.574,69.7073 158.5,71.5C 155.916,72.0483 154.916,73.715 155.5,76.5C 155.167,76.5 154.833,76.5 154.5,76.5C 153.504,76.5858 152.671,76.2524 152,75.5C 148.97,71.6129 147.97,67.2795 149,62.5C 149.278,61.5842 149.778,60.9175 150.5,60.5 Z"/></g>
<g><path style="opacity:1" fill="#3d682f" d="M 28.5,93.5 C 31.1149,97.0088 32.1149,101.009 31.5,105.5C 28.2139,106.207 24.8806,106.54 21.5,106.5C 17.6293,104.093 15.9626,100.76 16.5,96.5C 17.6625,99.4937 19.3291,102.16 21.5,104.5C 24.1773,106.166 25.8439,105.499 26.5,102.5C 23.8632,95.893 20.6965,89.5597 17,83.5C 14.5393,79.4873 15.0393,75.9873 18.5,73C 24.6941,71.8728 27.8607,74.3728 28,80.5C 26.9513,75.9491 24.118,73.9491 19.5,74.5C 22.2074,80.9172 25.2074,87.2506 28.5,93.5 Z"/></g>
<g><path style="opacity:1" fill="#cb8429" d="M 172.5,58.5 C 176.29,63.2624 176.456,68.2624 173,73.5C 170.471,77.8184 166.971,79.485 162.5,78.5C 163.641,76.4513 163.641,74.4513 162.5,72.5C 165.079,72.0833 167.246,72.75 169,74.5C 170,72.8333 171.333,71.5 173,70.5C 173.483,69.552 173.649,68.552 173.5,67.5C 173.784,65.5853 173.451,63.9187 172.5,62.5C 172.5,62.1667 172.5,61.8333 172.5,61.5C 172.5,60.5 172.5,59.5 172.5,58.5 Z"/></g>
<g><path style="opacity:1" fill="#4c9b28" d="M 158.5,71.5 C 159.833,71.8333 161.167,72.1667 162.5,72.5C 163.641,74.4513 163.641,76.4513 162.5,78.5C 161.833,79.1667 161.167,79.8333 160.5,80.5C 157.05,81.2436 155.384,79.9103 155.5,76.5C 154.916,73.715 155.916,72.0483 158.5,71.5 Z"/></g>
<g><path style="opacity:1" fill="#999c5c" d="M 80.5,35.5 C 77.1028,39.4102 74.2695,43.7436 72,48.5C 69.6706,65.1695 76.8373,72.6695 93.5,71C 115.53,65.1382 119.197,53.6382 104.5,36.5C 122.209,39.0593 137.543,46.3927 150.5,58.5C 150.5,59.1667 150.5,59.8333 150.5,60.5C 149.778,60.9175 149.278,61.5842 149,62.5C 147.97,67.2795 148.97,71.6129 152,75.5C 152.671,76.2524 153.504,76.5858 154.5,76.5C 153.828,77.2674 152.995,77.9341 152,78.5C 150.41,88.7932 149.244,99.1265 148.5,109.5C 150.451,109.773 151.951,109.107 153,107.5C 154.158,103.225 154.992,98.8913 155.5,94.5C 156.978,94.238 158.311,94.5713 159.5,95.5C 160.637,97.6068 161.637,99.7735 162.5,102C 154.716,128.438 137.05,143.438 109.5,147C 86.9249,149.471 65.9249,144.971 46.5,133.5C 50.1936,128.375 51.1936,122.709 49.5,116.5C 48.5,116.5 47.5,116.5 46.5,116.5C 42.8546,109.916 37.5213,108.249 30.5,111.5C 30.5,110.5 30.5,109.5 30.5,108.5C 27.8127,108.664 25.146,108.497 22.5,108C 21.944,107.617 21.6107,107.117 21.5,106.5C 24.8806,106.54 28.2139,106.207 31.5,105.5C 32.1149,101.009 31.1149,97.0088 28.5,93.5C 30.6216,87.4927 32.4549,81.1593 34,74.5C 37.1602,65.0181 42.3269,56.8514 49.5,50C 56.967,41.4849 67.3003,36.6516 80.5,35.5 Z"/></g>
<g><path style="opacity:1" fill="#336126" d="M 36.5,78.5 C 38.1992,78.3398 39.8659,78.5065 41.5,79C 43.9864,82.8185 46.3197,86.6519 48.5,90.5C 50.0349,86.5981 51.7016,82.7648 53.5,79C 56.025,78.1041 58.1917,78.6041 60,80.5C 60.6667,90.5 60.6667,100.5 60,110.5C 57.9592,111.423 55.7925,111.756 53.5,111.5C 53.9204,104.716 53.4204,98.0496 52,91.5C 51.0943,93.612 49.5943,94.4453 47.5,94C 46.1258,91.4171 44.6258,88.9171 43,86.5C 42.6667,92.1667 42.3333,97.8333 42,103.5C 41.1207,106.346 39.4541,107.013 37,105.5C 35.1953,96.5245 35.0287,87.5245 36.5,78.5 Z"/></g>
<g><path style="opacity:1" fill="#336025" d="M 85.5,75.5 C 87.1667,75.5 88.8333,75.5 90.5,75.5C 93.2297,82.1827 96.0631,88.8494 99,95.5C 99.4995,89.5092 99.6662,83.5092 99.5,77.5C 101.582,77.472 103.416,78.1387 105,79.5C 105.499,87.5121 105.333,95.5121 104.5,103.5C 102.61,103.703 101.11,103.037 100,101.5C 98.254,97.6733 96.254,94.0066 94,90.5C 93.6667,94.8333 93.3333,99.1667 93,103.5C 92.0718,106.035 90.2385,107.035 87.5,106.5C 85.985,96.2309 85.3183,85.8976 85.5,75.5 Z"/></g>
<g><path style="opacity:1" fill="#366227" d="M 68.5,77.5 C 70.3117,77.7713 71.9783,78.438 73.5,79.5C 75.6043,87.7038 78.271,95.7038 81.5,103.5C 81.1667,104.167 80.8333,104.833 80.5,105.5C 78.458,102.387 76.7914,99.0538 75.5,95.5C 74.3112,94.5713 72.9778,94.238 71.5,94.5C 70.9915,98.8913 70.1582,103.225 69,107.5C 67.951,109.107 66.451,109.773 64.5,109.5C 65.1798,98.7105 66.5131,88.0438 68.5,77.5 Z"/></g>
<g><path style="opacity:1" fill="#346126" d="M 109.5,74.5 C 112.187,74.3359 114.854,74.5026 117.5,75C 116.207,75.49 114.873,75.6567 113.5,75.5C 114.092,78.1272 114.425,80.7938 114.5,83.5C 117.898,83.1796 121.232,83.513 124.5,84.5C 121.914,85.48 119.247,85.8134 116.5,85.5C 117.165,91.477 117.498,97.477 117.5,103.5C 119.604,103.201 121.604,103.534 123.5,104.5C 118.88,105.493 114.214,105.827 109.5,105.5C 109.5,95.1667 109.5,84.8333 109.5,74.5 Z"/></g>
<g><path style="opacity:1" fill="#336025" d="M 129.5,72.5 C 132.263,72.7438 134.429,74.0771 136,76.5C 136.5,86.828 136.666,97.1613 136.5,107.5C 139.85,107.335 143.183,107.502 146.5,108C 141.156,108.471 135.822,108.971 130.5,109.5C 129.605,97.1926 129.272,84.8592 129.5,72.5 Z"/></g>
<g><path style="opacity:1" fill="#975213" d="M 91.5,37.5 C 93.0481,37.8212 93.7148,38.8212 93.5,40.5C 94.9778,40.238 96.3112,40.5713 97.5,41.5C 93.1989,41.3811 91.1989,43.3811 91.5,47.5C 96.1886,46.8341 99.1886,48.6674 100.5,53C 99.4222,55.5933 98.0889,58.0933 96.5,60.5C 94.8211,58.8955 92.8211,58.2289 90.5,58.5C 90.5,57.5 90.5,56.5 90.5,55.5C 92.5273,55.6621 94.5273,55.4955 96.5,55C 97.0219,54.4387 97.3552,53.772 97.5,53C 94.4769,50.9852 91.3102,49.1519 88,47.5C 87.0226,44.741 87.856,42.741 90.5,41.5C 91.4287,40.3112 91.762,38.9778 91.5,37.5 Z"/></g>
<g><path style="opacity:1" fill="#e9eae5" d="M 104.5,108.5 C 110.842,108.334 117.175,108.5 123.5,109C 121.524,111.147 120.191,113.647 119.5,116.5C 121.271,119.447 123.271,122.281 125.5,125C 102.509,127.983 79.5093,129.816 56.5,130.5C 58.278,128.055 59.6113,125.389 60.5,122.5C 58.9181,119.576 56.9181,116.909 54.5,114.5C 71.334,112.713 88.0007,110.713 104.5,108.5 Z"/></g>
<g><path style="opacity:1" fill="#c9a945" d="M 91.5,124.5 C 90.325,124.719 89.325,124.386 88.5,123.5C 89.7853,120.979 90.4519,118.313 90.5,115.5C 91.9587,115.433 93.2921,115.766 94.5,116.5C 97.0803,122.885 98.0803,122.218 97.5,114.5C 99.7224,114.178 101.556,114.845 103,116.5C 103.483,115.552 103.649,114.552 103.5,113.5C 104.822,113.33 105.989,113.663 107,114.5C 107.498,117.482 107.665,120.482 107.5,123.5C 105.508,123.672 103.842,123.005 102.5,121.5C 101.614,122.325 101.281,123.325 101.5,124.5C 97.9458,124.151 94.6125,124.151 91.5,124.5 Z"/></g>
<g><path style="opacity:1" fill="#cfa637" d="M 72.5,117.5 C 76.8383,117.622 77.1716,117.955 73.5,118.5C 73.5,120.5 73.5,122.5 73.5,124.5C 74.9778,124.238 76.3112,124.571 77.5,125.5C 71.3755,127.877 69.2088,125.877 71,119.5C 71.7172,118.956 72.2172,118.289 72.5,117.5 Z"/></g>
<g><path style="opacity:1" fill="#caa740" d="M 86.5,116.5 C 86.6641,119.187 86.4974,121.854 86,124.5C 84.6439,125.38 83.1439,125.714 81.5,125.5C 80.5416,125.047 79.7083,124.381 79,123.5C 78.5034,121.19 78.3367,118.857 78.5,116.5C 79.5,116.5 80.5,116.5 81.5,116.5C 81.2011,118.604 81.5344,120.604 82.5,122.5C 83.4742,120.257 83.8076,117.924 83.5,115.5C 84.791,115.263 85.791,115.596 86.5,116.5 Z"/></g>
<g><path style="opacity:1" fill="#c7c796" d="M 94.5,116.5 C 93.2921,115.766 91.9587,115.433 90.5,115.5C 90.4519,118.313 89.7853,120.979 88.5,123.5C 89.325,124.386 90.325,124.719 91.5,124.5C 88.2302,126.16 84.8969,126.494 81.5,125.5C 83.1439,125.714 84.6439,125.38 86,124.5C 86.4974,121.854 86.6641,119.187 86.5,116.5C 87.29,117.609 87.79,118.942 88,120.5C 87.9068,117.432 89.2401,115.432 92,114.5C 93.3756,114.684 94.2089,115.351 94.5,116.5 Z"/></g>
<g><path style="opacity:1" fill="#3b642b" d="M 154.5,76.5 C 154.833,76.5 155.167,76.5 155.5,76.5C 155.384,79.9103 157.05,81.2436 160.5,80.5C 159.722,81.1556 159.056,81.9889 158.5,83C 159.917,86.7474 161.084,90.5807 162,94.5C 162.383,95.056 162.883,95.3893 163.5,95.5C 164.345,98.8264 164.845,102.16 165,105.5C 164.586,105.043 164.086,104.709 163.5,104.5C 156.399,130.361 139.732,145.695 113.5,150.5C 104.167,150.5 94.8333,150.5 85.5,150.5C 84.4324,149.566 83.099,149.232 81.5,149.5C 67.8831,147.52 55.5498,142.52 44.5,134.5C 44.8417,133.662 45.5084,133.328 46.5,133.5C 65.9249,144.971 86.9249,149.471 109.5,147C 137.05,143.438 154.716,128.438 162.5,102C 161.637,99.7735 160.637,97.6068 159.5,95.5C 158.311,94.5713 156.978,94.238 155.5,94.5C 154.992,98.8913 154.158,103.225 153,107.5C 151.951,109.107 150.451,109.773 148.5,109.5C 149.244,99.1265 150.41,88.7932 152,78.5C 152.995,77.9341 153.828,77.2674 154.5,76.5 Z"/></g>
<g><path style="opacity:0.626" fill="#cccfb8" d="M 190.5,127.5 C 187.11,127.961 186.11,129.627 187.5,132.5C 187.5,132.833 187.5,133.167 187.5,133.5C 180.984,135.539 178.984,139.872 181.5,146.5C 179.459,151.263 176.459,155.263 172.5,158.5C 170.813,156.834 168.813,155.5 166.5,154.5C 163.141,152.781 159.475,151.614 155.5,151C 156.629,148.832 158.129,148.332 160,149.5C 164.38,144.789 168.38,139.789 172,134.5C 171.621,132.925 171.788,131.425 172.5,130C 169.247,131.051 166.58,133.217 164.5,136.5C 164.167,136.167 163.833,135.833 163.5,135.5C 165.632,131.869 168.299,128.702 171.5,126C 177.835,125.444 184.168,124.944 190.5,124.5C 190.5,125.5 190.5,126.5 190.5,127.5 Z"/></g>
<g><path style="opacity:1" fill="#f2a923" d="M 46.5,133.5 C 45.5084,133.328 44.8417,133.662 44.5,134.5C 44.3893,135.117 44.056,135.617 43.5,136C 38.2924,137.995 33.2924,137.495 28.5,134.5C 27.6143,133.675 27.281,132.675 27.5,131.5C 26.5,131.5 25.5,131.5 24.5,131.5C 23.2032,125.281 23.8698,119.281 26.5,113.5C 28.1993,113.473 29.5326,112.806 30.5,111.5C 37.5213,108.249 42.8546,109.916 46.5,116.5C 47.5,116.5 48.5,116.5 49.5,116.5C 51.1936,122.709 50.1936,128.375 46.5,133.5 Z"/></g>
<g><path style="opacity:1" fill="#e19416" d="M 33.5,121.5 C 33.5,120.833 33.5,120.167 33.5,119.5C 36.1051,116.954 37.7717,117.621 38.5,121.5C 37.448,121.351 36.448,121.517 35.5,122C 41.0025,122.83 41.8359,125.33 38,129.5C 34.7085,127.976 34.8752,126.643 38.5,125.5C 36.9547,124.548 35.288,124.215 33.5,124.5C 33.5,123.5 33.5,122.5 33.5,121.5 Z"/></g>
<g><path style="opacity:1" fill="#fdf8e6" d="M 32.5,117.5 C 32.8333,118.167 33.1667,118.833 33.5,119.5C 33.5,120.167 33.5,120.833 33.5,121.5C 31.4513,122.641 29.4513,122.641 27.5,121.5C 27.5,120.167 27.5,118.833 27.5,117.5C 29.1667,117.5 30.8333,117.5 32.5,117.5 Z"/></g>
<g><path style="opacity:1" fill="#fad323" d="M 27.5,121.5 C 29.4513,122.641 31.4513,122.641 33.5,121.5C 33.5,122.5 33.5,123.5 33.5,124.5C 35.288,124.215 36.9547,124.548 38.5,125.5C 34.8752,126.643 34.7085,127.976 38,129.5C 41.8359,125.33 41.0025,122.83 35.5,122C 36.448,121.517 37.448,121.351 38.5,121.5C 37.7717,117.621 36.1051,116.954 33.5,119.5C 33.1667,118.833 32.8333,118.167 32.5,117.5C 31.9094,116.849 31.2427,116.182 30.5,115.5C 39.0756,111.788 44.409,114.454 46.5,123.5C 45.6651,131.606 41.3318,134.939 33.5,133.5C 31.9324,131.8 30.099,130.466 28,129.5C 27.6271,127.302 27.1271,125.135 26.5,123C 26.5699,122.235 26.9033,121.735 27.5,121.5 Z"/></g>
<g><path style="opacity:0.031" fill="#586a43" d="M 190.5,127.5 C 190.741,130.034 189.741,131.7 187.5,132.5C 186.11,129.627 187.11,127.961 190.5,127.5 Z"/></g>
<g><path style="opacity:0.078" fill="#949b7d" d="M 187.5,133.5 C 187.657,134.873 187.49,136.207 187,137.5C 184.626,140.263 182.792,143.263 181.5,146.5C 178.984,139.872 180.984,135.539 187.5,133.5 Z"/></g>
<g><path style="opacity:0.988" fill="#acaf9d" d="M 191.5,122.5 C 191.5,124.167 191.5,125.833 191.5,127.5C 191.167,127.5 190.833,127.5 190.5,127.5C 190.5,126.5 190.5,125.5 190.5,124.5C 184.168,124.944 177.835,125.444 171.5,126C 168.299,128.702 165.632,131.869 163.5,135.5C 163.833,135.833 164.167,136.167 164.5,136.5C 166.58,133.217 169.247,131.051 172.5,130C 171.788,131.425 171.621,132.925 172,134.5C 168.38,139.789 164.38,144.789 160,149.5C 158.129,148.332 156.629,148.832 155.5,151C 159.475,151.614 163.141,152.781 166.5,154.5C 166.062,154.435 165.728,154.601 165.5,155C 166.833,156 168.167,157 169.5,158C 163.134,157.105 156.801,155.605 150.5,153.5C 150.167,153.667 149.833,153.833 149.5,154C 151.037,155.11 151.703,156.61 151.5,158.5C 154.208,157.551 156.874,157.551 159.5,158.5C 158.833,159.167 158.167,159.833 157.5,160.5C 160.263,161.104 162.597,162.438 164.5,164.5C 163.253,166.323 162.586,168.323 162.5,170.5C 158.785,170.68 155.118,170.346 151.5,169.5C 146.935,165.435 141.935,162.102 136.5,159.5C 139,155.347 142.667,152.68 147.5,151.5C 152.324,147.509 156.657,143.009 160.5,138C 159.473,137.487 158.473,136.987 157.5,136.5C 160.731,133.048 163.731,129.381 166.5,125.5C 174.861,124.55 183.195,123.55 191.5,122.5 Z"/></g>
<g><path style="opacity:0.006" fill="#000000" d="M 13.5,156.5 C 15.5869,157.585 16.9202,159.251 17.5,161.5C 15.4131,160.415 14.0798,158.749 13.5,156.5 Z"/></g>
<g><path style="opacity:0.436" fill="#545b4e" d="M 166.5,154.5 C 168.813,155.5 170.813,156.834 172.5,158.5C 172.649,159.552 172.483,160.552 172,161.5C 168.829,164.523 165.662,167.523 162.5,170.5C 162.586,168.323 163.253,166.323 164.5,164.5C 162.597,162.438 160.263,161.104 157.5,160.5C 158.167,159.833 158.833,159.167 159.5,158.5C 156.874,157.551 154.208,157.551 151.5,158.5C 151.703,156.61 151.037,155.11 149.5,154C 149.833,153.833 150.167,153.667 150.5,153.5C 156.801,155.605 163.134,157.105 169.5,158C 168.167,157 166.833,156 165.5,155C 165.728,154.601 166.062,154.435 166.5,154.5 Z"/></g>
<g><path style="opacity:1" fill="#959a89" d="M 157.5,136.5 C 158.473,136.987 159.473,137.487 160.5,138C 156.657,143.009 152.324,147.509 147.5,151.5C 142.667,152.68 139,155.347 136.5,159.5C 135.427,160.251 135.26,161.251 136,162.5C 138.5,165.667 141,168.833 143.5,172C 142.944,172.383 142.611,172.883 142.5,173.5C 140.66,171.832 138.66,170.332 136.5,169C 134.994,166.667 133.327,164.5 131.5,162.5C 128.5,164.5 125.5,166.5 122.5,168.5C 121.468,166.96 120.135,166.46 118.5,167C 119.167,167.667 119.833,168.333 120.5,169C 118.63,170.366 116.63,171.533 114.5,172.5C 111.078,169.71 110.411,169.877 112.5,173C 111.177,173.816 110.511,174.983 110.5,176.5C 108.063,176.114 106.063,174.947 104.5,173C 107.353,171.466 110.186,169.966 113,168.5C 113.423,169.956 114.256,170.456 115.5,170C 114.167,169 114.167,168 115.5,167C 124.026,162.909 132.026,158.076 139.5,152.5C 145.917,147.627 151.917,142.293 157.5,136.5 Z"/></g>
<g><path style="opacity:0.631" fill="#377527" d="M 11.5,153.5 C 33.2397,155.848 52.2397,164.181 68.5,178.5C 70.6649,182.657 72.3315,186.99 73.5,191.5C 70.5,191.5 67.5,191.5 64.5,191.5C 62.9062,190.017 61.2395,188.517 59.5,187C 57.2884,186.211 55.2884,186.378 53.5,187.5C 53.1667,187.5 52.8333,187.5 52.5,187.5C 51.286,185.851 49.9527,184.185 48.5,182.5C 47.0944,183.668 45.9277,183.335 45,181.5C 44.7787,178.057 43.7787,177.724 42,180.5C 40.6439,179.62 39.1439,179.286 37.5,179.5C 33.6569,176.497 29.6569,173.664 25.5,171C 22.5516,168.037 19.885,164.87 17.5,161.5C 16.9202,159.251 15.5869,157.585 13.5,156.5C 12.5987,155.71 11.9321,154.71 11.5,153.5 Z"/></g>
<g><path style="opacity:1" fill="#b0b3a1" d="M 85.5,150.5 C 94.8333,150.5 104.167,150.5 113.5,150.5C 113.5,151.167 113.5,151.833 113.5,152.5C 112.698,153.952 112.198,155.618 112,157.5C 111.722,156.584 111.222,155.918 110.5,155.5C 109.766,154.292 109.433,152.959 109.5,151.5C 103.167,151.5 96.8333,151.5 90.5,151.5C 90.6399,153.124 89.9733,154.29 88.5,155C 90.5454,155.49 92.5454,155.323 94.5,154.5C 97.3054,155.319 100.305,155.819 103.5,156C 97.3736,156.728 91.3736,158.061 85.5,160C 87.4249,162.572 89.7582,163.072 92.5,161.5C 93.6473,161.818 94.4806,162.484 95,163.5C 97.5418,161.818 100.375,160.818 103.5,160.5C 103.472,162.582 104.139,164.416 105.5,166C 100.628,167.388 95.6278,167.888 90.5,167.5C 90.5,166.167 90.5,164.833 90.5,163.5C 89.1667,163.5 87.8333,163.5 86.5,163.5C 86.5,164.833 86.5,166.167 86.5,167.5C 84.1944,167.007 81.861,166.674 79.5,166.5C 80.705,161.816 82.0384,157.149 83.5,152.5C 83.7472,151.287 84.4138,150.62 85.5,150.5 Z"/></g>
<g><path style="opacity:1" fill="#ddddc6" d="M 110.5,155.5 C 110.44,156.043 110.107,156.376 109.5,156.5C 104.646,154.847 99.646,154.181 94.5,154.5C 92.5454,155.323 90.5454,155.49 88.5,155C 89.9733,154.29 90.6399,153.124 90.5,151.5C 96.8333,151.5 103.167,151.5 109.5,151.5C 109.433,152.959 109.766,154.292 110.5,155.5 Z"/></g>
<g><path style="opacity:0.672" fill="#5b6153" d="M 136.5,159.5 C 141.935,162.102 146.935,165.435 151.5,169.5C 155.118,170.346 158.785,170.68 162.5,170.5C 159.755,173.563 156.422,175.897 152.5,177.5C 148.937,176.718 145.603,175.384 142.5,173.5C 142.611,172.883 142.944,172.383 143.5,172C 141,168.833 138.5,165.667 136,162.5C 135.26,161.251 135.427,160.251 136.5,159.5 Z"/></g>
<g><path style="opacity:0.735" fill="#ced0b9" d="M 142.5,173.5 C 145.603,175.384 148.937,176.718 152.5,177.5C 152.586,178.496 152.252,179.329 151.5,180C 148.201,180.754 145.534,182.421 143.5,185C 140.143,186.17 136.809,187.337 133.5,188.5C 131.871,186.94 130.704,187.273 130,189.5C 126.249,189.027 122.416,188.861 118.5,189C 118.167,188.667 117.833,188.333 117.5,188C 119.5,187.667 121.5,187.333 123.5,187C 121.167,185.5 118.833,184 116.5,182.5C 117.711,181.28 117.711,180.113 116.5,179C 114.593,177.878 112.593,177.045 110.5,176.5C 110.511,174.983 111.177,173.816 112.5,173C 110.411,169.877 111.078,169.71 114.5,172.5C 116.63,171.533 118.63,170.366 120.5,169C 119.833,168.333 119.167,167.667 118.5,167C 120.135,166.46 121.468,166.96 122.5,168.5C 125.5,166.5 128.5,164.5 131.5,162.5C 133.327,164.5 134.994,166.667 136.5,169C 138.66,170.332 140.66,171.832 142.5,173.5 Z"/></g>
<g><path style="opacity:1" fill="#697061" d="M 113.5,152.5 C 114.341,157.199 114.341,161.866 113.5,166.5C 108.946,168.608 104.612,170.941 100.5,173.5C 99.0813,174.451 97.4147,174.784 95.5,174.5C 95.5,173.5 95.5,172.5 95.5,171.5C 93.8008,171.34 92.1341,171.506 90.5,172C 93.9415,172.836 94.1081,173.669 91,174.5C 87.3065,173.114 83.4731,172.28 79.5,172C 77.3855,171.576 76.5521,170.409 77,168.5C 83.1345,168.732 89.3012,169.065 95.5,169.5C 99.4452,168.732 103.445,168.232 107.5,168C 109.651,166.595 111.318,164.761 112.5,162.5C 112,162.167 111.5,161.833 111,161.5C 109.374,162.289 107.874,163.289 106.5,164.5C 105.479,163.099 104.479,161.765 103.5,160.5C 100.375,160.818 97.5418,161.818 95,163.5C 94.4806,162.484 93.6473,161.818 92.5,161.5C 89.7582,163.072 87.4249,162.572 85.5,160C 91.3736,158.061 97.3736,156.728 103.5,156C 100.305,155.819 97.3054,155.319 94.5,154.5C 99.646,154.181 104.646,154.847 109.5,156.5C 110.107,156.376 110.44,156.043 110.5,155.5C 111.222,155.918 111.722,156.584 112,157.5C 112.198,155.618 112.698,153.952 113.5,152.5 Z"/></g>
<g><path style="opacity:0.992" fill="#979b8a" d="M 81.5,149.5 C 83.099,149.232 84.4324,149.566 85.5,150.5C 84.4138,150.62 83.7472,151.287 83.5,152.5C 82.0384,157.149 80.705,161.816 79.5,166.5C 81.861,166.674 84.1944,167.007 86.5,167.5C 86.5,166.167 86.5,164.833 86.5,163.5C 87.8333,163.5 89.1667,163.5 90.5,163.5C 90.5,164.833 90.5,166.167 90.5,167.5C 95.6278,167.888 100.628,167.388 105.5,166C 104.139,164.416 103.472,162.582 103.5,160.5C 104.479,161.765 105.479,163.099 106.5,164.5C 107.874,163.289 109.374,162.289 111,161.5C 111.5,161.833 112,162.167 112.5,162.5C 111.318,164.761 109.651,166.595 107.5,168C 103.445,168.232 99.4452,168.732 95.5,169.5C 89.3012,169.065 83.1345,168.732 77,168.5C 76.5521,170.409 77.3855,171.576 79.5,172C 83.4731,172.28 87.3065,173.114 91,174.5C 94.1081,173.669 93.9415,172.836 90.5,172C 92.1341,171.506 93.8008,171.34 95.5,171.5C 95.5,172.5 95.5,173.5 95.5,174.5C 97.4147,174.784 99.0813,174.451 100.5,173.5C 101.043,173.56 101.376,173.893 101.5,174.5C 94.5237,175.664 87.5237,175.831 80.5,175C 78.6711,174.727 77.1711,173.893 76,172.5C 74.4966,175.94 71.9966,177.94 68.5,178.5C 74.1919,169.449 78.5252,159.782 81.5,149.5 Z"/></g>
<g><path style="opacity:0.815" fill="#d8d9c1" d="M 113.5,150.5 C 114.828,155.021 115.994,159.687 117,164.5C 123.412,161.094 129.578,157.261 135.5,153C 136.946,151.702 138.279,151.535 139.5,152.5C 132.026,158.076 124.026,162.909 115.5,167C 114.167,168 114.167,169 115.5,170C 114.256,170.456 113.423,169.956 113,168.5C 110.186,169.966 107.353,171.466 104.5,173C 106.063,174.947 108.063,176.114 110.5,176.5C 110.953,177.458 111.619,178.292 112.5,179C 111.552,179.483 110.552,179.649 109.5,179.5C 109.148,182.428 108.482,185.262 107.5,188C 109.256,188.202 110.922,188.702 112.5,189.5C 110.031,190.168 107.698,190.835 105.5,191.5C 94.8333,191.5 84.1667,191.5 73.5,191.5C 72.3315,186.99 70.6649,182.657 68.5,178.5C 71.9966,177.94 74.4966,175.94 76,172.5C 77.1711,173.893 78.6711,174.727 80.5,175C 87.5237,175.831 94.5237,175.664 101.5,174.5C 101.376,173.893 101.043,173.56 100.5,173.5C 104.612,170.941 108.946,168.608 113.5,166.5C 114.341,161.866 114.341,157.199 113.5,152.5C 113.5,151.833 113.5,151.167 113.5,150.5 Z"/></g>
<g><path style="opacity:0.688" fill="#828776" d="M 128.5,174.5 C 131.649,174.211 134.649,174.711 137.5,176C 139.426,179.79 138.26,181.623 134,181.5C 128.44,181.794 126.607,179.461 128.5,174.5 Z"/></g>
<g><path style="opacity:0.784" fill="#a5a793" d="M 110.5,176.5 C 112.593,177.045 114.593,177.878 116.5,179C 117.711,180.113 117.711,181.28 116.5,182.5C 118.833,184 121.167,185.5 123.5,187C 121.5,187.333 119.5,187.667 117.5,188C 117.833,188.333 118.167,188.667 118.5,189C 122.416,188.861 126.249,189.027 130,189.5C 130.704,187.273 131.871,186.94 133.5,188.5C 131.928,189.687 130.261,190.687 128.5,191.5C 120.833,191.5 113.167,191.5 105.5,191.5C 107.698,190.835 110.031,190.168 112.5,189.5C 110.922,188.702 109.256,188.202 107.5,188C 108.482,185.262 109.148,182.428 109.5,179.5C 110.552,179.649 111.552,179.483 112.5,179C 111.619,178.292 110.953,177.458 110.5,176.5 Z"/></g>
<g><path style="opacity:0.047" fill="#1a3f10" d="M 52.5,187.5 C 50.5183,187.005 48.5183,186.505 46.5,186C 43.7515,183.31 40.7515,181.144 37.5,179.5C 39.1439,179.286 40.6439,179.62 42,180.5C 43.7787,177.724 44.7787,178.057 45,181.5C 45.9277,183.335 47.0944,183.668 48.5,182.5C 49.9527,184.185 51.286,185.851 52.5,187.5 Z"/></g>
<g><path style="opacity:0.561" fill="#818675" d="M 87.5,179.5 C 96.4887,179.641 97.4887,182.141 90.5,187C 87.438,187.741 84.438,187.575 81.5,186.5C 80.4173,185.635 80.2506,184.635 81,183.5C 82.7918,181.372 84.9584,180.039 87.5,179.5 Z"/></g>
<g><path style="opacity:0.039" fill="#18420e" d="M 64.5,191.5 C 62.8333,191.5 61.1667,191.5 59.5,191.5C 57.082,190.707 55.082,189.374 53.5,187.5C 55.2884,186.378 57.2884,186.211 59.5,187C 61.2395,188.517 62.9062,190.017 64.5,191.5 Z"/></g>
</svg>
